<svg width="27" height="24" viewBox="0 0 27 24" fill="none" xmlns="http://www.w3.org/2000/svg">
<g clip-path="url(#clip0)">
<path d="M13.5 6.75C13.0032 6.75777 12.51 6.83669 12.0356 6.98438C12.255 7.3703 12.3719 7.80605 12.375 8.25C12.375 8.59472 12.3071 8.93606 12.1752 9.25454C12.0432 9.57302 11.8499 9.8624 11.6061 10.1062C11.3624 10.3499 11.073 10.5433 10.7545 10.6752C10.436 10.8071 10.0947 10.875 9.74997 10.875C9.30602 10.8719 8.87028 10.7551 8.48435 10.5356C8.17986 11.5916 8.21535 12.7167 8.58579 13.7514C8.95622 14.7861 9.64282 15.678 10.5483 16.3008C11.4538 16.9236 12.5324 17.2457 13.6311 17.2215C14.7299 17.1973 15.7931 16.828 16.6704 16.1659C17.5476 15.5038 18.1942 14.5825 18.5187 13.5325C18.8432 12.4825 18.8291 11.357 18.4784 10.3154C18.1277 9.27388 17.4582 8.36906 16.5647 7.72915C15.6712 7.08924 14.599 6.74668 13.5 6.75V6.75ZM26.8368 11.3156C24.2948 6.35578 19.2623 3 13.5 3C7.73763 3 2.70372 6.35813 0.163099 11.3161C0.055869 11.5282 0 11.7626 0 12.0002C0 12.2379 0.055869 12.4723 0.163099 12.6844C2.70513 17.6442 7.73763 21 13.5 21C19.2623 21 24.2962 17.6419 26.8368 12.6839C26.9441 12.4718 26.9999 12.2374 26.9999 11.9998C26.9999 11.7621 26.9441 11.5277 26.8368 11.3156V11.3156ZM13.5 18.75C8.87575 18.75 4.63638 16.1719 2.34701 12C4.63638 7.82812 8.87529 5.25 13.5 5.25C18.1247 5.25 22.3636 7.82812 24.6529 12C22.364 16.1719 18.1247 18.75 13.5 18.75Z" fill="#322F2A"/>
</g>
<defs>
<clipPath id="clip0">
<rect width="27" height="24" fill="white"/>
</clipPath>
</defs>
</svg>
