<svg width="21" height="24" viewBox="0 0 21 24" fill="none" xmlns="http://www.w3.org/2000/svg">
<path d="M15.1669 2.4C14.1919 3.30469 13.3116 4.25578 12.5316 5.21109C11.2537 3.45094 9.66937 1.66547 7.875 0C3.26906 4.27359 0 9.84188 0 13.2C0 19.1648 4.70109 24 10.5 24C16.2989 24 21 19.1648 21 13.2C21 10.703 18.5634 5.55281 15.1669 2.4ZM10.5 21.75C5.95078 21.75 2.25 17.9142 2.25 13.2C2.25 11.0733 4.32656 6.95578 7.8825 3.16453C8.92969 4.25953 9.88969 5.40141 10.7109 6.53297L12.4275 8.89734L14.2748 6.63375C14.5481 6.29859 14.8303 5.97047 15.1191 5.65078C17.2917 8.34188 18.75 11.7384 18.75 13.2C18.75 17.9142 15.0492 21.75 10.5 21.75ZM14.6939 11.3981L12.2892 14.1412C12.2892 14.1412 8.51953 9.32719 8.23547 9C6.24703 11.3841 5.25 12.7791 5.25 14.363C5.25 17.542 7.65797 19.5 10.6172 19.5C11.8013 19.5 12.8962 19.1311 13.785 18.5095C15.8044 17.0967 16.2778 14.3573 15.1566 12.217C15.0183 11.9536 14.8641 11.6789 14.6939 11.3981Z" fill="#FF6B00"/>
</svg>
